REM DIRINDEX 1\2,1\3,1\4,1\5,1\6
REM DIRNAME "folder01","folder02","folder03","folder04","folder05","folder06"
TITLE ""
FILE "Disc4Track31.mp3" MP3
  TRACK 01 AUDIO
    TITLE "3:cjc161_06997"
    INDEX 01 00:00:00
  TRACK 02 AUDIO
    TITLE "4:cjc161_06998"
    INDEX 01 00:01:22
  TRACK 03 AUDIO
    TITLE "5:cjc161_06999"
    INDEX 01 00:03:11
  TRACK 04 AUDIO
    TITLE "0:"
    INDEX 01 00:04:39
  TRACK 05 AUDIO
    TITLE "3:cjc161_07000"
    INDEX 01 00:05:02
  TRACK 06 AUDIO
    TITLE "4:cjc161_07001"
    INDEX 01 00:06:34
  TRACK 07 AUDIO
    TITLE "5:cjc161_07002"
    INDEX 01 00:08:29
  TRACK 08 AUDIO
    TITLE "0:"
    INDEX 01 00:09:64
  TRACK 09 AUDIO
    TITLE "3:cjc161_07003"
    INDEX 01 00:10:28
  TRACK 10 AUDIO
    TITLE "4:cjc161_07004"
    INDEX 01 00:11:65
  TRACK 11 AUDIO
    TITLE "5:cjc161_07005"
    INDEX 01 00:13:01
  TRACK 12 AUDIO
    TITLE "6:cjc161_07006"
    INDEX 01 00:14:38
  TRACK 13 AUDIO
    TITLE "0:"
    INDEX 01 00:19:15
  TRACK 14 AUDIO
    TITLE "3:cjc161_07007"
    INDEX 01 00:19:49
  TRACK 15 AUDIO
    TITLE "4:cjc161_07008"
    INDEX 01 00:21:12
  TRACK 16 AUDIO
    TITLE "5:cjc161_07009"
    INDEX 01 00:22:28
  TRACK 17 AUDIO
    TITLE "0:"
    INDEX 01 00:23:68
  TRACK 18 AUDIO
    TITLE "3:cjc161_07010"
    INDEX 01 00:24:34
  TRACK 19 AUDIO
    TITLE "4:cjc161_07011"
    INDEX 01 00:25:61
  TRACK 20 AUDIO
    TITLE "5:cjc161_07012"
    INDEX 01 00:28:26
  TRACK 21 AUDIO
    TITLE "0:"
    INDEX 01 00:29:53
  TRACK 22 AUDIO
    TITLE "3:cjc161_07013"
    INDEX 01 00:30:17
  TRACK 23 AUDIO
    TITLE "4:cjc161_07014"
    INDEX 01 00:31:30
  TRACK 24 AUDIO
    TITLE "5:cjc161_07015"
    INDEX 01 00:32:40
  TRACK 25 AUDIO
    TITLE "6:cjc161_07016"
    INDEX 01 00:33:53
  TRACK 26 AUDIO
    TITLE "0:"
    INDEX 01 00:36:69
  TRACK 27 AUDIO
    TITLE "3:cjc161_07017"
    INDEX 01 00:37:21
  TRACK 28 AUDIO
    TITLE "4:cjc161_07018"
    INDEX 01 00:38:42
  TRACK 29 AUDIO
    TITLE "5:cjc161_07019"
    INDEX 01 00:40:04
  TRACK 30 AUDIO
    TITLE "0:"
    INDEX 01 00:41:25
  TRACK 31 AUDIO
    TITLE "3:cjc161_07020"
    INDEX 01 00:41:60
  TRACK 32 AUDIO
    TITLE "4:cjc161_07021"
    INDEX 01 00:43:14
  TRACK 33 AUDIO
    TITLE "5:cjc161_07022"
    INDEX 01 00:44:17
  TRACK 34 AUDIO
    TITLE "0:"
    INDEX 01 00:45:46
  TRACK 35 AUDIO
    TITLE "3:cjc161_07023"
    INDEX 01 00:46:06
  TRACK 36 AUDIO
    TITLE "4:cjc161_07024"
    INDEX 01 00:47:27
  TRACK 37 AUDIO
    TITLE "5:cjc161_07025"
    INDEX 01 00:49:11
  TRACK 38 AUDIO
    TITLE "0:"
    INDEX 01 00:50:30
  TRACK 39 AUDIO
    TITLE "3:cjc161_07026"
    INDEX 01 00:50:67
  TRACK 40 AUDIO
    TITLE "4:cjc161_07027"
    INDEX 01 00:52:23
  TRACK 41 AUDIO
    TITLE "5:cjc161_07028"
    INDEX 01 00:55:25
  TRACK 42 AUDIO
    TITLE "6:cjc161_07029"
    INDEX 01 00:56:50
  TRACK 43 AUDIO
    TITLE "0:"
    INDEX 01 00:58:45
  TRACK 44 AUDIO
    TITLE "3:cjc161_07030"
    INDEX 01 00:58:74
  TRACK 45 AUDIO
    TITLE "4:cjc161_07031"
    INDEX 01 01:00:22
  TRACK 46 AUDIO
    TITLE "5:cjc161_07032"
    INDEX 01 01:01:33
  TRACK 47 AUDIO
    TITLE "6:cjc161_07033"
    INDEX 01 01:02:54
  TRACK 48 AUDIO
    TITLE "0:"
    INDEX 01 01:05:45
  TRACK 49 AUDIO
    TITLE "3:cjc161_07034"
    INDEX 01 01:06:01
  TRACK 50 AUDIO
    TITLE "4:cjc161_07035"
    INDEX 01 01:07:11
  TRACK 51 AUDIO
    TITLE "5:cjc161_07036"
    INDEX 01 01:10:01
  TRACK 52 AUDIO
    TITLE "6:cjc161_07037"
    INDEX 01 01:11:10
  TRACK 53 AUDIO
    TITLE "0:"
    INDEX 01 01:16:55
  TRACK 54 AUDIO
    TITLE "3:cjc161_07038"
    INDEX 01 01:17:09
  TRACK 55 AUDIO
    TITLE "4:cjc161_07039"
    INDEX 01 01:18:36
  TRACK 56 AUDIO
    TITLE "5:cjc161_07040"
    INDEX 01 01:19:63
  TRACK 57 AUDIO
    TITLE "6:cjc161_07041"
    INDEX 01 01:21:11
  TRACK 58 AUDIO
    TITLE "0:"
    INDEX 01 01:24:62
  TRACK 59 AUDIO
    TITLE "3:cjc161_07042"
    INDEX 01 01:25:18
  TRACK 60 AUDIO
    TITLE "4:cjc161_07043"
    INDEX 01 01:26:47
  TRACK 61 AUDIO
    TITLE "5:cjc161_07044"
    INDEX 01 01:27:43
  TRACK 62 AUDIO
    TITLE "0:"
    INDEX 01 01:28:72
